# Blender v2.79 (sub 0) OBJ File: ''
# www.blender.org
mtllib Sponge.mtl
o Sponge
v 2.626100 -0.000000 9.049700
v 2.088600 -0.000000 11.098900
v -2.088600 -0.000000 11.098900
v -2.626100 -0.000000 9.049700
v 2.224200 0.000000 0.000000
v 2.811000 -0.000000 6.033100
v -2.811000 -0.000000 6.033100
v -2.224200 0.000000 0.000000
v 2.951700 0.000000 -6.033100
v -2.951700 0.000000 -6.033100
v 2.916200 0.000000 -9.049700
v -2.916200 0.000000 -9.049700
v 2.088600 7.000000 11.098900
v 2.626100 7.000000 9.049700
v -2.626100 7.000000 9.049700
v -2.088600 7.000000 11.098900
v 2.811000 7.000000 6.033101
v 2.224200 7.000000 0.000000
v -2.224200 7.000000 0.000000
v -2.811000 7.000000 6.033101
v 2.951700 7.000000 -6.033100
v -2.951700 7.000000 -6.033100
v 2.916200 7.000000 -9.049700
v -2.916200 7.000000 -9.049700
v 1.834900 0.999999 12.066200
v 1.834900 6.000000 12.066200
v -1.834900 6.000000 12.066200
v -1.834900 0.999999 12.066200
v 5.533200 1.000000 8.250000
v 5.533200 6.000000 8.250000
v 3.866200 6.000000 11.000000
v 3.866200 1.000000 11.000000
v 5.923000 1.000000 5.500000
v 4.686500 1.000000 0.000000
v 4.686500 6.000000 0.000000
v 5.923000 6.000000 5.500000
v 6.219400 1.000000 -5.500000
v 6.219400 6.000000 -5.500000
v 6.144500 1.000000 -8.250000
v 6.144500 6.000000 -8.250000
v -2.194700 1.000000 -12.066200
v -2.194700 6.000000 -12.066200
v 2.194700 6.000000 -12.066200
v 2.194700 1.000000 -12.066200
v -6.144500 1.000000 -8.250000
v -6.144500 6.000000 -8.250000
v -4.624200 6.000000 -11.000000
v -4.624200 1.000000 -11.000000
v -6.219400 1.000000 -5.500000
v -4.686500 1.000000 0.000000
v -4.686500 6.000000 0.000000
v -6.219400 6.000000 -5.500000
v -5.923000 1.000000 5.500000
v -5.923000 6.000000 5.500000
v -5.533200 1.000000 8.250000
v -5.533200 6.000000 8.250000
v 2.427300 0.000000 -11.093600
v -2.427300 0.000000 -11.093600
v -2.427300 7.000000 -11.093600
v 2.427300 7.000000 -11.093600
v 4.624300 1.000000 -11.000000
v 4.624300 6.000000 -11.000000
v -3.866200 1.000000 11.000000
v -3.866200 6.000000 11.000000
v 3.155200 -0.000000 10.243800
v -3.155200 -0.000000 10.243800
v 3.686500 0.000000 0.000000
v 4.937300 -0.000000 5.668800
v -4.937300 -0.000000 5.668800
v -3.686500 0.000000 0.000000
v 5.232400 0.000000 -5.661000
v -5.232400 0.000000 -5.661000
v 5.173800 0.000000 -8.490400
v -5.173800 0.000000 -8.490400
v 3.155200 7.000000 10.243800
v -3.155200 7.000000 10.243800
v 4.937300 7.000000 5.668800
v 3.686500 7.000000 0.000000
v -3.686500 7.000000 0.000000
v -4.937300 7.000000 5.668800
v 5.232400 7.000000 -5.660999
v -5.232400 7.000000 -5.660999
v 5.173800 7.000000 -8.490400
v -5.173800 7.000000 -8.490400
v 4.569000 -0.000000 8.515200
v -4.569000 -0.000000 8.515200
v 3.912700 0.000000 -10.220200
v -3.912700 0.000000 -10.220200
v -4.569000 7.000000 8.515200
v 4.569000 7.000000 8.515200
v -3.912700 7.000000 -10.220200
v 3.912700 7.000000 -10.220200
v -5.292200 0.250000 8.316300
v -3.688400 0.250000 10.811000
v 5.292200 0.250000 8.316300
v 5.676600 0.250000 5.542200
v 1.898300 0.249999 11.824400
v 3.688400 0.250000 10.811000
v -4.436500 0.250000 0.000000
v -5.676500 0.250000 5.542200
v 4.436500 0.250000 0.000000
v -5.972600 0.250000 -5.540300
v 5.972600 0.250000 -5.540300
v -5.901800 0.250000 -8.310100
v -2.252800 0.250001 -11.823100
v -4.446400 0.250000 -10.805000
v 5.901800 0.250000 -8.310100
v 4.446400 0.250000 -10.805000
v -1.898300 6.750000 11.824400
v -3.688400 6.750000 10.811000
v 5.292200 6.750000 8.316300
v 3.688400 6.750000 10.811000
v -5.292200 6.750000 8.316300
v -5.676500 6.750000 5.542201
v 4.436500 6.750000 0.000000
v 5.676600 6.750000 5.542201
v -4.436500 6.750000 0.000000
v 5.972600 6.750000 -5.540299
v -5.972600 6.750000 -5.540299
v 5.901800 6.750000 -8.310100
v 2.252800 6.750000 -11.823100
v 4.446400 6.750000 -10.805000
v -5.901800 6.750000 -8.310100
v -4.446400 6.750000 -10.805000
v -1.898300 0.249999 11.824400
v 2.252800 0.250001 -11.823100
v 1.898300 6.750000 11.824400
v -2.252800 6.750000 -11.823100
vt 0.969800 0.404600
vt 0.920000 0.519300
vt 0.920000 0.391500
vt 0.846600 0.387000
vt 0.699900 0.509500
vt 0.699900 0.401300
vt 0.553200 0.527200
vt 0.553200 0.383600
vt 0.479900 0.526300
vt 0.479900 0.384500
vt 0.077500 0.085900
vt 0.027600 0.200500
vt 0.027600 0.099000
vt 0.297500 0.095700
vt 0.150800 0.218100
vt 0.150800 0.081400
vt 0.444200 0.078000
vt 0.297500 0.203800
vt 0.517600 0.078800
vt 0.444200 0.221500
vt 0.681700 0.833500
vt 0.783400 0.972100
vt 0.681700 0.972100
vt 0.549200 0.833500
vt 0.625400 0.972100
vt 0.549200 0.972100
vt 0.320500 0.972100
vt 0.472900 0.833500
vt 0.472900 0.972100
vt 0.168000 0.972100
vt 0.320500 0.833500
vt 0.091800 0.833500
vt 0.091800 0.972100
vt 0.689400 0.637600
vt 0.811100 0.776200
vt 0.689400 0.776200
vt 0.545800 0.637600
vt 0.622000 0.776200
vt 0.545800 0.776200
vt 0.317100 0.776200
vt 0.469600 0.637600
vt 0.469600 0.776200
vt 0.164600 0.776200
vt 0.317100 0.637600
vt 0.088400 0.637600
vt 0.088400 0.776200
vt 0.846600 0.523800
vt 0.430200 0.514400
vt 0.430200 0.396400
vt 0.077500 0.213600
vt 0.517600 0.220700
vt 0.567300 0.090700
vt 0.567300 0.208800
vt 0.015500 0.833500
vt 0.015500 0.972100
vt 0.012200 0.637600
vt 0.012200 0.776200
vt 0.949000 0.378700
vt 0.969800 0.506200
vt 0.949000 0.532100
vt 0.699900 0.365800
vt 0.699900 0.545000
vt 0.493500 0.329600
vt 0.493500 0.581200
vt 0.048400 0.073000
vt 0.048400 0.226500
vt 0.297500 0.060100
vt 0.297500 0.239400
vt 0.504000 0.023900
vt 0.504000 0.275600
vt 0.625400 0.833500
vt 0.839800 0.972100
vt 0.783400 0.833500
vt 0.839800 0.833500
vt 0.622000 0.637600
vt 0.878400 0.776200
vt 0.811100 0.637600
vt 0.878400 0.637600
vt 0.907000 0.344300
vt 0.907000 0.566500
vt 0.451400 0.360300
vt 0.451400 0.550500
vt 0.090500 0.260900
vt 0.090500 0.038700
vt 0.546100 0.244900
vt 0.546100 0.054600
vt 0.962800 0.545100
vt 0.902200 0.584100
vt 0.902200 0.326700
vt 0.837800 0.335300
vt 0.834700 0.317400
vt 0.962800 0.365700
vt 0.987500 0.409200
vt 0.699900 0.563300
vt 0.837800 0.575500
vt 0.834700 0.593400
vt 0.699900 0.347500
vt 0.562300 0.582600
vt 0.565200 0.600600
vt 0.562300 0.328200
vt 0.565200 0.310200
vt 0.497900 0.598900
vt 0.437200 0.563500
vt 0.412400 0.510200
vt 0.437200 0.347300
vt 0.497900 0.311900
vt 0.034600 0.239400
vt 0.010000 0.195900
vt 0.034600 0.060100
vt 0.095300 0.021100
vt 0.095300 0.278400
vt 0.159700 0.269800
vt 0.162800 0.287800
vt 0.297500 0.041900
vt 0.159700 0.029700
vt 0.162800 0.011700
vt 0.297500 0.257600
vt 0.435200 0.022500
vt 0.432300 0.004500
vt 0.435200 0.277000
vt 0.432300 0.295000
vt 0.499600 0.006200
vt 0.560300 0.041600
vt 0.585000 0.095000
vt 0.560300 0.257900
vt 0.499600 0.293300
vt 0.987500 0.501600
vt 0.412400 0.400600
vt 0.010000 0.103600
vt 0.585000 0.204500
vt 0.086600 0.797000
vt 0.474100 0.992900
vt 0.680000 0.992900
vt 0.163500 0.797000
vt 0.470700 0.797000
vt 0.166900 0.992900
vt 0.687800 0.797000
vt 0.090100 0.992900
vt 0.785200 0.812700
vt 0.551000 0.812700
vt 0.163500 0.616800
vt 0.164600 0.637600
vt 0.474100 0.812700
vt 0.166900 0.812700
vt 0.168000 0.833500
vt 0.470700 0.616800
vt 0.812700 0.616800
vt 0.547500 0.616800
vt 0.551000 0.992900
vt 0.547500 0.797000
vt 0.086600 0.616800
vt 0.090100 0.812700
vt 0.785200 0.992900
vt 0.812700 0.797000
vt 0.680000 0.812700
vt 0.687800 0.616800
vt 0.017400 0.797000
vt 0.625300 0.992900
vt 0.317100 0.797000
vt 0.320500 0.992900
vt 0.621800 0.797000
vt 0.020900 0.992900
vt 0.834800 0.812700
vt 0.625300 0.812700
vt 0.320500 0.812700
vt 0.317100 0.616800
vt 0.873500 0.616800
vt 0.621800 0.616800
vt 0.017400 0.616800
vt 0.020900 0.812700
vt 0.834800 0.992900
vt 0.873500 0.797000
vn 0.1081 -0.9613 0.2532
vn 0.0000 -1.0000 -0.0000
vn 0.0000 1.0000 0.0000
vn -0.1250 0.9630 0.2388
vn 0.0835 0.9718 0.2205
vn 0.2331 0.1332 0.9633
vn -0.2246 -0.1314 0.9655
vn 0.2294 -0.1350 0.9639
vn 0.9402 0.1260 0.3166
vn 0.6710 -0.1719 0.7212
vn 0.9393 -0.1214 0.3208
vn 0.9862 -0.1631 0.0267
vn 0.9866 0.1578 -0.0421
vn 0.9865 -0.1581 -0.0414
vn 0.9800 -0.1590 0.1199
vn 0.9861 0.1642 0.0237
vn 0.9568 0.1339 -0.2580
vn 0.9585 -0.1326 -0.2525
vn -0.1998 0.1382 -0.9700
vn 0.1938 -0.1371 -0.9714
vn -0.1972 -0.1395 -0.9704
vn -0.9602 0.1344 -0.2450
vn -0.6605 -0.1719 -0.7309
vn -0.9599 -0.1302 -0.2484
vn -0.9863 -0.1631 0.0244
vn -0.9798 0.1593 0.1212
vn -0.9798 -0.1593 0.1206
vn -0.9867 -0.1575 -0.0407
vn -0.9860 0.1642 0.0274
vn -0.9350 0.1256 0.3318
vn -0.9374 -0.1238 0.3255
vn -0.0808 -0.9728 -0.2172
vn 0.0620 -0.9762 -0.2078
vn 0.0808 0.9728 -0.2172
vn -0.0620 0.9762 -0.2078
vn 0.6726 0.1677 -0.7208
vn 0.6663 -0.1723 -0.7256
vn -0.6855 0.1674 0.7086
vn -0.6786 -0.1713 0.7142
vn 0.0913 -0.9902 0.1056
vn -0.0748 -0.9729 0.2190
vn -0.1054 -0.9904 0.0892
vn 0.1373 -0.9905 0.0034
vn -0.1375 -0.9905 0.0033
vn 0.2472 -0.9653 -0.0846
vn -0.2237 -0.9708 -0.0871
vn 0.1054 0.9904 0.0892
vn -0.0913 0.9902 0.1056
vn 0.1374 0.9905 0.0033
vn -0.1373 0.9905 0.0034
vn 0.2237 0.9708 -0.0871
vn -0.2472 0.9653 -0.0846
vn 0.6843 0.1678 0.7097
vn -0.2322 0.1430 0.9621
vn -0.6718 0.1688 -0.7213
vn 0.1999 0.1461 -0.9689
vn 0.2333 -0.9661 0.1108
vn -0.2649 -0.9582 0.1085
vn 0.1066 -0.9887 -0.1057
vn -0.0933 -0.9887 -0.1175
vn -0.2333 0.9661 0.1108
vn 0.2649 0.9582 0.1085
vn -0.1066 0.9887 -0.1057
vn 0.0933 0.9887 -0.1175
vn -0.4979 -0.7042 0.5061
vn -0.7342 -0.6200 0.2765
vn 0.7119 -0.6426 0.2833
vn 0.1813 -0.9834 -0.0050
vn 0.7297 -0.6832 -0.0280
vn 0.4775 -0.7049 0.5245
vn 0.2031 -0.6351 0.7452
vn -0.6689 -0.7433 0.0136
vn -0.1802 -0.9836 -0.0070
vn -0.7296 -0.6833 -0.0297
vn 0.6710 -0.7413 0.0167
vn -0.1732 -0.9846 0.0224
vn -0.7199 -0.6885 0.0876
vn 0.1740 -0.9845 0.0225
vn 0.7198 -0.6885 0.0889
vn -0.7273 -0.6486 -0.2244
vn -0.4739 -0.6969 -0.5382
vn -0.1684 -0.6484 -0.7424
vn 0.4890 -0.6970 -0.5245
vn 0.7435 -0.6323 -0.2179
vn -0.4775 0.7049 0.5245
vn -0.2031 0.6351 0.7452
vn 0.4979 0.7042 0.5061
vn 0.7342 0.6201 0.2765
vn -0.7119 0.6426 0.2833
vn -0.1814 0.9834 -0.0050
vn -0.7297 0.6832 -0.0280
vn 0.6689 0.7433 0.0136
vn 0.1802 0.9836 -0.0070
vn 0.7296 0.6832 -0.0297
vn -0.6710 0.7413 0.0167
vn 0.1732 0.9846 0.0224
vn 0.7199 0.6885 0.0876
vn -0.1740 0.9845 0.0225
vn -0.7197 0.6886 0.0889
vn 0.7273 0.6486 -0.2244
vn 0.4740 0.6969 -0.5382
vn 0.1684 0.6484 -0.7424
vn -0.4890 0.6970 -0.5245
vn -0.7434 0.6323 -0.2178
vn -0.1888 -0.6368 0.7476
vn 0.1588 -0.6494 -0.7437
vn 0.1888 0.6368 0.7476
vn -0.1588 0.6494 -0.7437
vn -0.9871 0.1544 -0.0420
vn 0.9803 0.1574 0.1194
usemtl Sponge
s 1
f 2/1/1 4/2/2 1/3/2
f 6/4/2 8/5/2 5/6/2
f 5/6/2 10/7/2 9/8/2
f 9/8/2 12/9/2 11/10/2
f 14/11/3 16/12/4 13/13/5
f 18/14/3 20/15/3 17/16/3
f 21/17/3 19/18/3 18/14/3
f 23/19/3 22/20/3 21/17/3
f 26/21/6 28/22/7 25/23/8
f 30/24/9 32/25/10 29/26/11
f 34/27/12 36/28/13 33/29/14
f 37/30/15 35/31/16 34/27/12
f 40/32/17 37/30/15 39/33/18
f 42/34/19 44/35/20 41/36/21
f 46/37/22 48/38/23 45/39/24
f 50/40/25 52/41/26 49/42/27
f 53/43/28 51/44/29 50/40/25
f 56/45/30 53/43/28 55/46/31
f 1/3/2 7/47/2 6/4/2
f 11/10/2 58/48/32 57/49/33
f 15/50/3 17/16/3 20/15/3
f 24/51/3 60/52/34 59/53/35
f 36/28/13 29/26/11 33/29/14
f 62/54/36 39/33/18 61/55/37
f 52/41/26 45/39/24 49/42/27
f 64/56/38 55/46/31 63/57/39
f 1/3/2 65/58/40 2/1/1
f 3/59/41 66/60/42 4/2/2
f 67/61/43 6/4/2 5/6/2
f 7/47/2 70/62/44 8/5/2
f 9/8/2 67/61/43 5/6/2
f 70/62/44 10/7/2 8/5/2
f 73/63/45 9/8/2 11/10/2
f 10/7/2 74/64/46 12/9/2
f 13/13/5 75/65/47 14/11/3
f 15/50/3 76/66/48 16/12/4
f 17/16/3 78/67/49 18/14/3
f 79/68/50 20/15/3 19/18/3
f 78/67/49 21/17/3 18/14/3
f 22/20/3 79/68/50 19/18/3
f 21/17/3 83/69/51 23/19/3
f 84/70/52 22/20/3 24/51/3
f 31/71/53 25/23/8 32/25/10
f 63/72/39 27/73/54 64/74/38
f 47/75/55 41/36/21 48/38/23
f 61/76/37 43/77/56 62/78/36
f 6/4/2 85/79/57 1/3/2
f 86/80/58 7/47/2 4/2/2
f 57/49/33 87/81/59 11/10/2
f 12/9/2 88/82/60 58/48/32
f 20/15/3 89/83/61 15/50/3
f 90/84/62 17/16/3 14/11/3
f 59/53/35 91/85/63 24/51/3
f 23/19/3 92/86/64 60/52/34
f 86/80/58 94/87/65 93/88/66
f 95/89/67 68/90/68 96/91/69
f 2/1/1 98/92/70 97/93/71
f 99/94/72 69/95/73 100/96/74
f 68/90/68 101/97/75 96/91/69
f 72/98/76 99/94/72 102/99/77
f 101/97/75 71/100/78 103/101/79
f 104/102/80 72/98/76 102/99/77
f 58/48/32 106/103/81 105/104/82
f 73/63/45 108/105/83 107/106/84
f 16/12/4 110/107/85 109/108/86
f 90/84/62 112/109/87 111/110/88
f 113/111/89 80/112/90 114/113/91
f 115/114/92 77/115/93 116/116/94
f 80/112/90 117/117/95 114/113/91
f 81/118/96 115/114/92 118/119/97
f 117/117/95 82/120/98 119/121/99
f 120/122/100 81/118/96 118/119/97
f 60/52/34 122/123/101 121/124/102
f 84/70/52 124/125/103 123/126/104
f 69/95/73 93/88/66 100/96/74
f 98/92/70 85/79/57 95/89/67
f 106/103/81 74/64/46 104/102/80
f 71/100/78 107/106/84 103/101/79
f 77/115/93 111/110/88 116/116/94
f 110/107/85 89/83/61 113/111/89
f 122/123/101 83/69/51 120/122/100
f 82/120/98 123/126/104 119/121/99
f 3/59/41 97/93/71 125/127/105
f 94/87/65 3/59/41 125/127/105
f 57/49/33 105/104/82 126/128/106
f 108/105/83 57/49/33 126/128/106
f 13/13/5 109/108/86 127/129/107
f 112/109/87 13/13/5 127/129/107
f 59/53/35 121/124/102 128/130/108
f 124/125/103 59/53/35 128/130/108
f 93/131/66 63/57/39 55/46/31
f 29/26/11 96/132/69 33/29/14
f 97/133/71 32/25/10 25/23/8
f 50/40/25 100/134/74 53/43/28
f 96/132/69 34/27/12 33/29/14
f 102/135/77 50/40/25 49/42/27
f 34/27/12 103/136/79 37/30/15
f 45/39/24 102/135/77 49/42/27
f 105/137/82 48/38/23 41/36/21
f 107/138/84 61/55/37 39/33/18
f 109/139/86 64/74/38 27/73/54
f 111/140/88 31/71/53 30/24/9
f 56/45/30 114/141/91 54/142/109
f 35/31/16 116/143/94 36/28/13
f 114/141/91 51/44/29 54/142/109
f 118/144/97 35/31/16 38/145/110
f 51/44/29 119/146/99 52/41/26
f 40/32/17 118/144/97 38/145/110
f 121/147/102 62/78/36 43/77/56
f 123/148/104 47/75/55 46/37/22
f 100/134/74 55/46/31 53/43/28
f 32/25/10 95/149/67 29/26/11
f 48/38/23 104/150/80 45/39/24
f 103/136/79 39/33/18 37/30/15
f 116/143/94 30/24/9 36/28/13
f 64/56/38 113/151/89 56/45/30
f 62/54/36 120/152/100 40/32/17
f 119/146/99 46/37/22 52/41/26
f 125/153/105 25/23/8 28/22/7
f 63/72/39 125/153/105 28/22/7
f 126/154/106 41/36/21 44/35/20
f 61/76/37 126/154/106 44/35/20
f 127/155/107 27/73/54 26/21/6
f 31/71/53 127/155/107 26/21/6
f 128/156/108 43/77/56 42/34/19
f 47/75/55 128/156/108 42/34/19
f 15/50/3 89/83/61 76/66/48
f 75/65/47 90/84/62 14/11/3
f 91/85/63 84/70/52 24/51/3
f 23/19/3 83/69/51 92/86/64
f 12/9/2 74/64/46 88/82/60
f 87/81/59 73/63/45 11/10/2
f 66/60/42 86/80/58 4/2/2
f 1/3/2 85/79/57 65/58/40
f 2/1/1 3/59/41 4/2/2
f 6/4/2 7/47/2 8/5/2
f 5/6/2 8/5/2 10/7/2
f 9/8/2 10/7/2 12/9/2
f 14/11/3 15/50/3 16/12/4
f 18/14/3 19/18/3 20/15/3
f 21/17/3 22/20/3 19/18/3
f 23/19/3 24/51/3 22/20/3
f 26/21/6 27/73/54 28/22/7
f 30/24/9 31/71/53 32/25/10
f 34/27/12 35/31/16 36/28/13
f 37/30/15 38/145/110 35/31/16
f 40/32/17 38/145/110 37/30/15
f 42/34/19 43/77/56 44/35/20
f 46/37/22 47/75/55 48/38/23
f 50/40/25 51/44/29 52/41/26
f 53/43/28 54/142/109 51/44/29
f 56/45/30 54/142/109 53/43/28
f 1/3/2 4/2/2 7/47/2
f 11/10/2 12/9/2 58/48/32
f 15/50/3 14/11/3 17/16/3
f 24/51/3 23/19/3 60/52/34
f 36/28/13 30/24/9 29/26/11
f 62/54/36 40/32/17 39/33/18
f 52/41/26 46/37/22 45/39/24
f 64/56/38 56/45/30 55/46/31
f 67/61/43 68/90/68 6/4/2
f 7/47/2 69/95/73 70/62/44
f 9/8/2 71/100/78 67/61/43
f 70/62/44 72/98/76 10/7/2
f 73/63/45 71/100/78 9/8/2
f 10/7/2 72/98/76 74/64/46
f 17/16/3 77/115/93 78/67/49
f 79/68/50 80/112/90 20/15/3
f 78/67/49 81/118/96 21/17/3
f 22/20/3 82/120/98 79/68/50
f 21/17/3 81/118/96 83/69/51
f 84/70/52 82/120/98 22/20/3
f 31/71/53 26/21/6 25/23/8
f 63/72/39 28/22/7 27/73/54
f 47/75/55 42/34/19 41/36/21
f 61/76/37 44/35/20 43/77/56
f 6/4/2 68/90/68 85/79/57
f 86/80/58 69/95/73 7/47/2
f 20/15/3 80/112/90 89/83/61
f 90/84/62 77/115/93 17/16/3
f 86/80/58 66/60/42 94/87/65
f 95/89/67 85/79/57 68/90/68
f 2/1/1 65/58/40 98/92/70
f 99/94/72 70/62/44 69/95/73
f 68/90/68 67/61/43 101/97/75
f 72/98/76 70/62/44 99/94/72
f 101/97/75 67/61/43 71/100/78
f 104/102/80 74/64/46 72/98/76
f 58/48/32 88/82/60 106/103/81
f 73/63/45 87/81/59 108/105/83
f 16/12/4 76/66/48 110/107/85
f 90/84/62 75/65/47 112/109/87
f 113/111/89 89/83/61 80/112/90
f 115/114/92 78/67/49 77/115/93
f 80/112/90 79/68/50 117/117/95
f 81/118/96 78/67/49 115/114/92
f 117/117/95 79/68/50 82/120/98
f 120/122/100 83/69/51 81/118/96
f 60/52/34 92/86/64 122/123/101
f 84/70/52 91/85/63 124/125/103
f 69/95/73 86/80/58 93/88/66
f 98/92/70 65/58/40 85/79/57
f 106/103/81 88/82/60 74/64/46
f 71/100/78 73/63/45 107/106/84
f 77/115/93 90/84/62 111/110/88
f 110/107/85 76/66/48 89/83/61
f 122/123/101 92/86/64 83/69/51
f 82/120/98 84/70/52 123/126/104
f 3/59/41 2/1/1 97/93/71
f 94/87/65 66/60/42 3/59/41
f 57/49/33 58/48/32 105/104/82
f 108/105/83 87/81/59 57/49/33
f 13/13/5 16/12/4 109/108/86
f 112/109/87 75/65/47 13/13/5
f 59/53/35 60/52/34 121/124/102
f 124/125/103 91/85/63 59/53/35
f 93/131/66 94/157/65 63/57/39
f 29/26/11 95/149/67 96/132/69
f 97/133/71 98/158/70 32/25/10
f 50/40/25 99/159/72 100/134/74
f 96/132/69 101/160/75 34/27/12
f 102/135/77 99/159/72 50/40/25
f 34/27/12 101/160/75 103/136/79
f 45/39/24 104/150/80 102/135/77
f 105/137/82 106/161/81 48/38/23
f 107/138/84 108/162/83 61/55/37
f 109/139/86 110/163/85 64/74/38
f 111/140/88 112/164/87 31/71/53
f 56/45/30 113/151/89 114/141/91
f 35/31/16 115/165/92 116/143/94
f 114/141/91 117/166/95 51/44/29
f 118/144/97 115/165/92 35/31/16
f 51/44/29 117/166/95 119/146/99
f 40/32/17 120/152/100 118/144/97
f 121/147/102 122/167/101 62/78/36
f 123/148/104 124/168/103 47/75/55
f 100/134/74 93/131/66 55/46/31
f 32/25/10 98/158/70 95/149/67
f 48/38/23 106/161/81 104/150/80
f 103/136/79 107/138/84 39/33/18
f 116/143/94 111/140/88 30/24/9
f 64/56/38 110/169/85 113/151/89
f 62/54/36 122/170/101 120/152/100
f 119/146/99 123/148/104 46/37/22
f 125/153/105 97/133/71 25/23/8
f 63/72/39 94/171/65 125/153/105
f 126/154/106 105/137/82 41/36/21
f 61/76/37 108/172/83 126/154/106
f 127/155/107 109/139/86 27/73/54
f 31/71/53 112/164/87 127/155/107
f 128/156/108 121/147/102 43/77/56
f 47/75/55 124/168/103 128/156/108
